<svg xmlns="http://www.w3.org/2000/svg" xmlns:xlink="http://www.w3.org/1999/xlink" width="1080" zoomAndPan="magnify" viewBox="0 0 810 809.999993" height="1080" preserveAspectRatio="xMidYMid meet" version="1.0"><defs><g/></defs><g fill="#000000" fill-opacity="1"><g transform="translate(74.01906, 445.315915)"><g><path d="M 1.296875 0 L 17.359375 -69.640625 L 7.125 -69.640625 L 10.9375 -86.1875 L 48.671875 -86.1875 L 44.859375 -69.640625 L 34.625 -69.640625 L 18.5625 0 Z M 1.296875 0 "/></g></g></g><g fill="#000000" fill-opacity="1"><g transform="translate(120.776291, 445.315915)"><g><path d="M -6.03125 0 L 13.84375 -86.1875 L 48.359375 -86.1875 L 44.546875 -69.53125 L 27.59375 -69.53125 L 23.671875 -52.78125 L 39.9375 -52.78125 L 36.21875 -36.53125 L 19.96875 -36.53125 L 15.34375 -16.75 L 33.40625 -16.75 L 29.59375 0 Z M -6.03125 0 "/></g></g></g><g fill="#000000" fill-opacity="1"><g transform="translate(169.138905, 445.315915)"><g><path d="M 13.84375 -86.1875 L 40.328125 -86.1875 C 44.546875 -86.1875 47.585938 -85.234375 49.453125 -83.328125 C 51.328125 -81.421875 52.265625 -78.742188 52.265625 -75.296875 C 52.265625 -71.859375 51.664062 -67.460938 50.46875 -62.109375 C 49.332031 -57.222656 47.8125 -53.410156 45.90625 -50.671875 C 44 -47.929688 41.335938 -46.023438 37.921875 -44.953125 C 40.398438 -44.421875 41.988281 -43.117188 42.6875 -41.046875 C 43.394531 -38.972656 43.347656 -36.160156 42.546875 -32.609375 L 34.8125 0 L 17.953125 0 L 25.6875 -33.71875 C 26.28125 -36.125 26.175781 -37.660156 25.375 -38.328125 C 24.570312 -38.992188 22.9375 -39.328125 20.46875 -39.328125 L 11.4375 0 L -6.03125 0 Z M 28.1875 -54.28125 C 30.59375 -54.28125 32.398438 -56.890625 33.609375 -62.109375 C 34.140625 -64.390625 34.421875 -66.097656 34.453125 -67.234375 C 34.492188 -68.367188 34.296875 -69.148438 33.859375 -69.578125 C 33.421875 -70.015625 32.703125 -70.234375 31.703125 -70.234375 L 27.6875 -70.234375 L 24.078125 -54.28125 Z M 28.1875 -54.28125 "/></g></g></g><g fill="#000000" fill-opacity="1"><g transform="translate(224.023361, 445.315915)"><g><path d="M 13.84375 0.796875 C 7.550781 0.796875 2.96875 -1.171875 0.09375 -5.109375 C -2.78125 -9.054688 -3.414062 -14.476562 -1.8125 -21.375 L 7.3125 -61.109375 C 9.320312 -69.671875 12.535156 -76.125 16.953125 -80.46875 C 21.367188 -84.820312 27.222656 -87 34.515625 -87 C 40.867188 -87 45.582031 -85.257812 48.65625 -81.78125 C 51.738281 -78.300781 52.507812 -73.285156 50.96875 -66.734375 L 47.5625 -51.875 L 30.390625 -51.875 L 33.40625 -64.625 C 33.9375 -67.09375 34.019531 -68.796875 33.65625 -69.734375 C 33.289062 -70.671875 32.375 -71.140625 30.90625 -71.140625 C 29.363281 -71.140625 28.171875 -70.601562 27.328125 -69.53125 C 26.492188 -68.46875 25.84375 -66.898438 25.375 -64.828125 L 15.34375 -21.578125 C 14.875 -19.296875 14.835938 -17.632812 15.234375 -16.59375 C 15.640625 -15.5625 16.515625 -15.046875 17.859375 -15.046875 C 20.535156 -15.046875 22.375 -17.222656 23.375 -21.578125 L 26.984375 -37.125 L 44.34375 -37.125 L 40.625 -20.875 C 37.28125 -6.425781 28.351562 0.796875 13.84375 0.796875 Z M 13.84375 0.796875 "/></g></g></g><g fill="#000000" fill-opacity="1"><g transform="translate(278.60681, 445.315915)"><g><path d="M -6.03125 0 L 13.84375 -86.1875 L 48.359375 -86.1875 L 44.546875 -69.53125 L 27.59375 -69.53125 L 23.671875 -52.78125 L 39.9375 -52.78125 L 36.21875 -36.53125 L 19.96875 -36.53125 L 15.34375 -16.75 L 33.40625 -16.75 L 29.59375 0 Z M -6.03125 0 "/></g></g></g><g fill="#000000" fill-opacity="1"><g transform="translate(326.969416, 445.315915)"><g><path d="M 13.84375 -86.1875 L 40.328125 -86.1875 C 44.546875 -86.1875 47.585938 -85.234375 49.453125 -83.328125 C 51.328125 -81.421875 52.265625 -78.742188 52.265625 -75.296875 C 52.265625 -71.859375 51.664062 -67.460938 50.46875 -62.109375 C 49.332031 -57.222656 47.8125 -53.410156 45.90625 -50.671875 C 44 -47.929688 41.335938 -46.023438 37.921875 -44.953125 C 40.398438 -44.421875 41.988281 -43.117188 42.6875 -41.046875 C 43.394531 -38.972656 43.347656 -36.160156 42.546875 -32.609375 L 34.8125 0 L 17.953125 0 L 25.6875 -33.71875 C 26.28125 -36.125 26.175781 -37.660156 25.375 -38.328125 C 24.570312 -38.992188 22.9375 -39.328125 20.46875 -39.328125 L 11.4375 0 L -6.03125 0 Z M 28.1875 -54.28125 C 30.59375 -54.28125 32.398438 -56.890625 33.609375 -62.109375 C 34.140625 -64.390625 34.421875 -66.097656 34.453125 -67.234375 C 34.492188 -68.367188 34.296875 -69.148438 33.859375 -69.578125 C 33.421875 -70.015625 32.703125 -70.234375 31.703125 -70.234375 L 27.6875 -70.234375 L 24.078125 -54.28125 Z M 28.1875 -54.28125 "/></g></g></g><g fill="#000000" fill-opacity="1"><g transform="translate(381.853889, 445.315915)"><g/></g></g><g fill="#000000" fill-opacity="1"><g transform="translate(412.356643, 445.315915)"><g><path d="M 1.296875 0 L 17.359375 -69.640625 L 7.125 -69.640625 L 10.9375 -86.1875 L 48.671875 -86.1875 L 44.859375 -69.640625 L 34.625 -69.640625 L 18.5625 0 Z M 1.296875 0 "/></g></g></g><g fill="#000000" fill-opacity="1"><g transform="translate(459.113866, 445.315915)"><g><path d="M -6.828125 0 L 13.03125 -86.1875 L 29.6875 -86.1875 L 9.828125 0 Z M -6.828125 0 "/></g></g></g><g fill="#000000" fill-opacity="1"><g transform="translate(488.914275, 445.315915)"><g><path d="M -6.03125 0 L 13.84375 -86.1875 L 48.359375 -86.1875 L 44.546875 -69.53125 L 27.59375 -69.53125 L 23.671875 -52.78125 L 39.9375 -52.78125 L 36.21875 -36.53125 L 19.96875 -36.53125 L 15.34375 -16.75 L 33.40625 -16.75 L 29.59375 0 Z M -6.03125 0 "/></g></g></g><g fill="#000000" fill-opacity="1"><g transform="translate(537.276881, 445.315915)"><g><path d="M -6.03125 0 L 13.84375 -86.1875 L 40.125 -86.1875 L 35.21875 -33.609375 L 54.578125 -86.1875 L 81.078125 -86.1875 L 61.203125 0 L 45.453125 0 L 59.796875 -62.109375 L 35.515625 0 L 20.0625 0 L 23.875 -62.109375 L 9.53125 0 Z M -6.03125 0 "/></g></g></g><g fill="#000000" fill-opacity="1"><g transform="translate(619.151792, 445.315915)"><g><path d="M 13.84375 -86.1875 L 36.625 -86.1875 C 43.507812 -86.1875 47.90625 -83.960938 49.8125 -79.515625 C 51.71875 -75.066406 51.703125 -68.5625 49.765625 -60 C 47.753906 -51.4375 44.941406 -44.976562 41.328125 -40.625 C 37.722656 -36.28125 32.539062 -34.109375 25.78125 -34.109375 L 18.75 -34.109375 L 10.9375 0 L -6.03125 0 Z M 23.375 -49.671875 C 25.445312 -49.671875 27.050781 -50.054688 28.1875 -50.828125 C 29.320312 -51.597656 30.207031 -52.703125 30.84375 -54.140625 C 31.476562 -55.578125 32.132812 -57.632812 32.8125 -60.3125 C 33.613281 -63.914062 33.796875 -66.519531 33.359375 -68.125 C 32.921875 -69.738281 31.5 -70.546875 29.09375 -70.546875 L 27.1875 -70.546875 L 22.375 -49.671875 Z M 23.375 -49.671875 "/></g></g></g><g fill="#000000" fill-opacity="1"><g transform="translate(673.534613, 445.315915)"><g><path d="M 14.34375 0.796875 C 7.382812 0.796875 2.585938 -1.320312 -0.046875 -5.5625 C -2.691406 -9.8125 -3.113281 -15.785156 -1.3125 -23.484375 L 8.125 -64.515625 C 9.863281 -71.941406 12.972656 -77.546875 17.453125 -81.328125 C 21.929688 -85.109375 27.648438 -87 34.609375 -87 C 41.566406 -87 46.414062 -85.109375 49.15625 -81.328125 C 51.90625 -77.546875 52.410156 -71.941406 50.671875 -64.515625 L 41.234375 -23.484375 C 39.429688 -15.722656 36.238281 -9.734375 31.65625 -5.515625 C 27.070312 -1.304688 21.300781 0.796875 14.34375 0.796875 Z M 17.953125 -15.046875 C 19.492188 -15.046875 20.695312 -15.710938 21.5625 -17.046875 C 22.4375 -18.390625 23.140625 -20.265625 23.671875 -22.671875 L 33.40625 -64.828125 C 33.8125 -66.691406 33.910156 -68.207031 33.703125 -69.375 C 33.503906 -70.550781 32.632812 -71.140625 31.09375 -71.140625 C 28.21875 -71.140625 26.28125 -68.96875 25.28125 -64.625 L 15.546875 -22.578125 C 14.941406 -20.097656 14.789062 -18.222656 15.09375 -16.953125 C 15.394531 -15.679688 16.347656 -15.046875 17.953125 -15.046875 Z M 17.953125 -15.046875 "/></g></g></g></svg>