<svg xmlns="http://www.w3.org/2000/svg" xmlns:xlink="http://www.w3.org/1999/xlink" width="1080" zoomAndPan="magnify" viewBox="0 0 810 809.999993" height="1080" preserveAspectRatio="xMidYMid meet" version="1.0"><defs><g/><clipPath id="17938feef3"><path d="M 77.199219 77.199219 L 732.800781 77.199219 L 732.800781 732.800781 L 77.199219 732.800781 Z M 77.199219 77.199219 " clip-rule="nonzero"/></clipPath><clipPath id="471311aa27"><path d="M 405 77.199219 C 223.960938 77.199219 77.199219 223.960938 77.199219 405 C 77.199219 586.039062 223.960938 732.800781 405 732.800781 C 586.039062 732.800781 732.800781 586.039062 732.800781 405 C 732.800781 223.960938 586.039062 77.199219 405 77.199219 Z M 405 77.199219 " clip-rule="nonzero"/></clipPath></defs><g clip-path="url(#17938feef3)"><g clip-path="url(#471311aa27)"><path fill="#ffffff" d="M 77.199219 77.199219 L 732.800781 77.199219 L 732.800781 732.800781 L 77.199219 732.800781 Z M 77.199219 77.199219 " fill-opacity="1" fill-rule="nonzero"/></g></g><g fill="#000000" fill-opacity="1"><g transform="translate(174.102372, 573.875679)"><g><path d="M 0.90625 0 L 12.109375 -48.578125 L 4.96875 -48.578125 L 7.625 -60.125 L 33.953125 -60.125 L 31.296875 -48.578125 L 24.15625 -48.578125 L 12.953125 0 Z M 0.90625 0 "/></g></g></g><g fill="#000000" fill-opacity="1"><g transform="translate(206.720967, 573.875679)"><g><path d="M -4.203125 0 L 9.65625 -60.125 L 33.734375 -60.125 L 31.078125 -48.515625 L 19.25 -48.515625 L 16.515625 -36.8125 L 27.859375 -36.8125 L 25.265625 -25.484375 L 13.921875 -25.484375 L 10.703125 -11.6875 L 23.296875 -11.6875 L 20.640625 0 Z M -4.203125 0 "/></g></g></g><g fill="#000000" fill-opacity="1"><g transform="translate(240.459504, 573.875679)"><g><path d="M 9.65625 -60.125 L 28.125 -60.125 C 31.070312 -60.125 33.195312 -59.457031 34.5 -58.125 C 35.8125 -56.800781 36.46875 -54.9375 36.46875 -52.53125 C 36.46875 -50.132812 36.046875 -47.066406 35.203125 -43.328125 C 34.410156 -39.921875 33.347656 -37.257812 32.015625 -35.34375 C 30.679688 -33.4375 28.828125 -32.109375 26.453125 -31.359375 C 28.179688 -30.984375 29.289062 -30.070312 29.78125 -28.625 C 30.269531 -27.175781 30.234375 -25.21875 29.671875 -22.75 L 24.28125 0 L 12.515625 0 L 17.90625 -23.515625 C 18.332031 -25.203125 18.265625 -26.273438 17.703125 -26.734375 C 17.140625 -27.203125 15.992188 -27.4375 14.265625 -27.4375 L 7.96875 0 L -4.203125 0 Z M 19.65625 -37.875 C 21.34375 -37.875 22.601562 -39.691406 23.4375 -43.328125 C 23.8125 -44.910156 24.007812 -46.097656 24.03125 -46.890625 C 24.0625 -47.691406 23.921875 -48.242188 23.609375 -48.546875 C 23.304688 -48.847656 22.804688 -49 22.109375 -49 L 19.3125 -49 L 16.796875 -37.875 Z M 19.65625 -37.875 "/></g></g></g><g fill="#000000" fill-opacity="1"><g transform="translate(278.747783, 573.875679)"><g><path d="M 9.65625 0.5625 C 5.269531 0.5625 2.070312 -0.8125 0.0625 -3.5625 C -1.945312 -6.320312 -2.390625 -10.101562 -1.265625 -14.90625 L 5.109375 -42.625 C 6.503906 -48.601562 8.738281 -53.109375 11.8125 -56.140625 C 14.894531 -59.171875 18.984375 -60.6875 24.078125 -60.6875 C 28.503906 -60.6875 31.789062 -59.472656 33.9375 -57.046875 C 36.082031 -54.617188 36.617188 -51.117188 35.546875 -46.546875 L 33.171875 -36.1875 L 21.203125 -36.1875 L 23.296875 -45.078125 C 23.671875 -46.804688 23.726562 -47.992188 23.46875 -48.640625 C 23.21875 -49.296875 22.578125 -49.625 21.546875 -49.625 C 20.472656 -49.625 19.644531 -49.25 19.0625 -48.5 C 18.476562 -47.757812 18.023438 -46.664062 17.703125 -45.21875 L 10.703125 -15.046875 C 10.378906 -13.460938 10.351562 -12.304688 10.625 -11.578125 C 10.90625 -10.859375 11.515625 -10.5 12.453125 -10.5 C 14.316406 -10.5 15.597656 -12.015625 16.296875 -15.046875 L 18.828125 -25.90625 L 30.9375 -25.90625 L 28.34375 -14.5625 C 26.007812 -4.476562 19.78125 0.5625 9.65625 0.5625 Z M 9.65625 0.5625 "/></g></g></g><g fill="#000000" fill-opacity="1"><g transform="translate(316.826074, 573.875679)"><g><path d="M -4.203125 0 L 9.65625 -60.125 L 33.734375 -60.125 L 31.078125 -48.515625 L 19.25 -48.515625 L 16.515625 -36.8125 L 27.859375 -36.8125 L 25.265625 -25.484375 L 13.921875 -25.484375 L 10.703125 -11.6875 L 23.296875 -11.6875 L 20.640625 0 Z M -4.203125 0 "/></g></g></g><g fill="#000000" fill-opacity="1"><g transform="translate(350.564605, 573.875679)"><g><path d="M 9.65625 -60.125 L 28.125 -60.125 C 31.070312 -60.125 33.195312 -59.457031 34.5 -58.125 C 35.8125 -56.800781 36.46875 -54.9375 36.46875 -52.53125 C 36.46875 -50.132812 36.046875 -47.066406 35.203125 -43.328125 C 34.410156 -39.921875 33.347656 -37.257812 32.015625 -35.34375 C 30.679688 -33.4375 28.828125 -32.109375 26.453125 -31.359375 C 28.179688 -30.984375 29.289062 -30.070312 29.78125 -28.625 C 30.269531 -27.175781 30.234375 -25.21875 29.671875 -22.75 L 24.28125 0 L 12.515625 0 L 17.90625 -23.515625 C 18.332031 -25.203125 18.265625 -26.273438 17.703125 -26.734375 C 17.140625 -27.203125 15.992188 -27.4375 14.265625 -27.4375 L 7.96875 0 L -4.203125 0 Z M 19.65625 -37.875 C 21.34375 -37.875 22.601562 -39.691406 23.4375 -43.328125 C 23.8125 -44.910156 24.007812 -46.097656 24.03125 -46.890625 C 24.0625 -47.691406 23.921875 -48.242188 23.609375 -48.546875 C 23.304688 -48.847656 22.804688 -49 22.109375 -49 L 19.3125 -49 L 16.796875 -37.875 Z M 19.65625 -37.875 "/></g></g></g><g fill="#000000" fill-opacity="1"><g transform="translate(388.852895, 573.875679)"><g/></g></g><g fill="#000000" fill-opacity="1"><g transform="translate(410.132107, 573.875679)"><g><path d="M 0.90625 0 L 12.109375 -48.578125 L 4.96875 -48.578125 L 7.625 -60.125 L 33.953125 -60.125 L 31.296875 -48.578125 L 24.15625 -48.578125 L 12.953125 0 Z M 0.90625 0 "/></g></g></g><g fill="#000000" fill-opacity="1"><g transform="translate(442.750697, 573.875679)"><g><path d="M -4.765625 0 L 9.09375 -60.125 L 20.71875 -60.125 L 6.859375 0 Z M -4.765625 0 "/></g></g></g><g fill="#000000" fill-opacity="1"><g transform="translate(463.539941, 573.875679)"><g><path d="M -4.203125 0 L 9.65625 -60.125 L 33.734375 -60.125 L 31.078125 -48.515625 L 19.25 -48.515625 L 16.515625 -36.8125 L 27.859375 -36.8125 L 25.265625 -25.484375 L 13.921875 -25.484375 L 10.703125 -11.6875 L 23.296875 -11.6875 L 20.640625 0 Z M -4.203125 0 "/></g></g></g><g fill="#000000" fill-opacity="1"><g transform="translate(497.278473, 573.875679)"><g><path d="M -4.203125 0 L 9.65625 -60.125 L 28 -60.125 L 24.5625 -23.453125 L 38.078125 -60.125 L 56.546875 -60.125 L 42.6875 0 L 31.703125 0 L 41.71875 -43.328125 L 24.765625 0 L 14 0 L 16.65625 -43.328125 L 6.640625 0 Z M -4.203125 0 "/></g></g></g><g fill="#000000" fill-opacity="1"><g transform="translate(554.395726, 573.875679)"><g><path d="M 9.65625 -60.125 L 25.546875 -60.125 C 30.347656 -60.125 33.414062 -58.570312 34.75 -55.46875 C 36.082031 -52.363281 36.070312 -47.828125 34.71875 -41.859375 C 33.3125 -35.890625 31.347656 -31.382812 28.828125 -28.34375 C 26.304688 -25.3125 22.691406 -23.796875 17.984375 -23.796875 L 13.078125 -23.796875 L 7.625 0 L -4.203125 0 Z M 16.296875 -34.65625 C 17.742188 -34.65625 18.863281 -34.921875 19.65625 -35.453125 C 20.457031 -35.992188 21.078125 -36.765625 21.515625 -37.765625 C 21.960938 -38.765625 22.414062 -40.195312 22.875 -42.0625 C 23.4375 -44.582031 23.566406 -46.398438 23.265625 -47.515625 C 22.960938 -48.640625 21.972656 -49.203125 20.296875 -49.203125 L 18.96875 -49.203125 L 15.609375 -34.65625 Z M 16.296875 -34.65625 "/></g></g></g><g fill="#000000" fill-opacity="1"><g transform="translate(592.334056, 573.875679)"><g><path d="M 10 0.5625 C 5.144531 0.5625 1.796875 -0.914062 -0.046875 -3.875 C -1.890625 -6.84375 -2.179688 -11.007812 -0.921875 -16.375 L 5.65625 -45.015625 C 6.875 -50.191406 9.046875 -54.097656 12.171875 -56.734375 C 15.296875 -59.367188 19.285156 -60.6875 24.140625 -60.6875 C 28.992188 -60.6875 32.375 -59.367188 34.28125 -56.734375 C 36.195312 -54.097656 36.550781 -50.191406 35.34375 -45.015625 L 28.765625 -16.375 C 27.503906 -10.96875 25.273438 -6.789062 22.078125 -3.84375 C 18.878906 -0.90625 14.851562 0.5625 10 0.5625 Z M 12.515625 -10.5 C 13.585938 -10.5 14.425781 -10.960938 15.03125 -11.890625 C 15.644531 -12.828125 16.140625 -14.132812 16.515625 -15.8125 L 23.296875 -45.21875 C 23.578125 -46.53125 23.644531 -47.59375 23.5 -48.40625 C 23.363281 -49.21875 22.757812 -49.625 21.6875 -49.625 C 19.6875 -49.625 18.332031 -48.109375 17.625 -45.078125 L 10.84375 -15.75 C 10.425781 -14.019531 10.320312 -12.710938 10.53125 -11.828125 C 10.738281 -10.941406 11.398438 -10.5 12.515625 -10.5 Z M 12.515625 -10.5 "/></g></g></g><g fill="#000000" fill-opacity="1"><g transform="translate(397.041135, 457.766524)"><g><path d="M 3.90625 0 L 51.90625 -208.203125 L 21.296875 -208.203125 L 32.703125 -257.703125 L 145.5 -257.703125 L 134.09375 -208.203125 L 103.5 -208.203125 L 55.5 0 Z M 3.90625 0 "/></g></g></g><g fill="#000000" fill-opacity="1"><g transform="translate(412.957999, 198.132322)"><g><path d="M -3.90625 0 L -51.90625 208.203125 L -21.296875 208.203125 L -32.703125 257.703125 L -145.5 257.703125 L -134.09375 208.203125 L -103.5 208.203125 L -55.5 0 Z M -3.90625 0 "/></g></g></g></svg>