<svg xmlns="http://www.w3.org/2000/svg" xmlns:xlink="http://www.w3.org/1999/xlink" width="1080" zoomAndPan="magnify" viewBox="0 0 810 809.999993" height="1080" preserveAspectRatio="xMidYMid meet" version="1.0"><defs><g/><clipPath id="a74647ea95"><path d="M 77.199219 77.199219 L 732.800781 77.199219 L 732.800781 732.800781 L 77.199219 732.800781 Z M 77.199219 77.199219 " clip-rule="nonzero"/></clipPath><clipPath id="4090b2073e"><path d="M 405 77.199219 C 223.960938 77.199219 77.199219 223.960938 77.199219 405 C 77.199219 586.039062 223.960938 732.800781 405 732.800781 C 586.039062 732.800781 732.800781 586.039062 732.800781 405 C 732.800781 223.960938 586.039062 77.199219 405 77.199219 Z M 405 77.199219 " clip-rule="nonzero"/></clipPath></defs><g clip-path="url(#a74647ea95)"><g clip-path="url(#4090b2073e)"><path fill="#000000" d="M 77.199219 77.199219 L 732.800781 77.199219 L 732.800781 732.800781 L 77.199219 732.800781 Z M 77.199219 77.199219 " fill-opacity="1" fill-rule="nonzero"/></g></g><g fill="#ffffff" fill-opacity="1"><g transform="translate(393.035317, 580.498107)"><g><path d="M 5.859375 0 L 78.015625 -313 L 32.015625 -313 L 49.15625 -387.40625 L 218.734375 -387.40625 L 201.59375 -313 L 155.59375 -313 L 83.4375 0 Z M 5.859375 0 "/></g></g></g><g fill="#ffffff" fill-opacity="1"><g transform="translate(416.963431, 190.187542)"><g><path d="M -5.859375 0 L -78.015625 313 L -32.015625 313 L -49.15625 387.40625 L -218.734375 387.40625 L -201.59375 313 L -155.59375 313 L -83.4375 0 Z M -5.859375 0 "/></g></g></g></svg>